<svg width="95" height="61" viewBox="0 0 95 61" fill="none" xmlns="http://www.w3.org/2000/svg">
<path d="M-2 0H80C88.2843 0 95 6.71573 95 15V46C95 54.2843 88.2843 61 80 61H-2V0Z" fill="#AA4646"/>
<path d="M59.7161 4.05811H33.2841C26.0019 4.05811 20.0773 9.96283 20.0773 17.2205V43.7794C20.0773 51.0366 26.0019 56.942 33.2841 56.942H59.7161C66.9983 56.942 72.9228 51.0366 72.9228 43.7794V17.2205C72.9228 9.96284 66.9983 4.05816 59.7161 4.05816V4.05811ZM68.0315 43.7793C68.0315 48.3486 64.3014 52.0668 59.7161 52.0668H33.2842C28.6989 52.0668 24.9687 48.3486 24.9687 43.7793V26.6259H35.4175C34.6547 28.2394 34.2256 30.0393 34.2256 31.9375C34.2256 38.8319 39.8532 44.44 46.7705 44.44C53.6877 44.44 59.3153 38.8319 59.3153 31.9375C59.3153 30.0393 58.8864 28.2394 58.1234 26.6259H68.0315V43.7793H68.0315ZM41.5628 31.9376C41.5628 29.0761 43.8989 26.7477 46.7706 26.7477C49.6423 26.7477 51.9782 29.0762 51.9782 31.9376C51.9782 34.7996 49.6423 37.1277 46.7706 37.1277C43.899 37.1276 41.5628 34.7996 41.5628 31.9376ZM68.0315 21.751H54.0303C51.9791 20.2952 49.4747 19.4352 46.7706 19.4352C44.0664 19.4352 41.5617 20.2952 39.511 21.751H24.9687V17.2205C24.9687 12.6507 28.6989 8.9331 33.2842 8.9331H59.7161C64.3014 8.9331 68.0315 12.6507 68.0315 17.2205V21.751H68.0316H68.0315ZM62.7312 11.8897H58.197C57.3898 11.8897 56.7296 12.5479 56.7296 13.3522V17.8713C56.7296 18.6756 57.3897 19.3338 58.197 19.3338H62.7312C63.5384 19.3338 64.1986 18.6756 64.1986 17.8713V13.3522C64.1986 12.5479 63.5385 11.8897 62.7312 11.8897Z" fill="black"/>
</svg>
