<svg width="43" height="43" viewBox="0 0 43 43" fill="none" xmlns="http://www.w3.org/2000/svg">
<g filter="url(#filter0_d)">
<path d="M21.5 35C18.0388 35 14.6554 33.9736 11.7775 32.0507C8.89967 30.1278 6.65665 27.3947 5.33212 24.197C4.00758 20.9993 3.66102 17.4806 4.33627 14.0859C5.01151 10.6913 6.67822 7.57306 9.12564 5.12564C11.5731 2.67822 14.6913 1.01151 18.0859 0.336265C21.4806 -0.338976 24.9993 0.00758248 28.197 1.33212C31.3947 2.65665 34.1278 4.89967 36.0507 7.77753C37.9736 10.6554 39 14.0388 39 17.5C39 22.1413 37.1563 26.5925 33.8744 29.8744C30.5925 33.1563 26.1413 35 21.5 35V35ZM21.5 2.69231C18.5713 2.69231 15.7084 3.56077 13.2733 5.18786C10.8382 6.81495 8.94024 9.1276 7.81948 11.8333C6.69872 14.5391 6.40548 17.5164 6.97684 20.3888C7.5482 23.2613 8.95849 25.8997 11.0294 27.9706C13.1003 30.0415 15.7388 31.4518 18.6112 32.0232C21.4836 32.5945 24.4609 32.3013 27.1667 31.1805C29.8724 30.0598 32.1851 28.1618 33.8121 25.7267C35.4392 23.2916 36.3077 20.4287 36.3077 17.5C36.3077 13.5728 34.7476 9.80637 31.9706 7.02939C29.1936 4.25241 25.4272 2.69231 21.5 2.69231Z" fill="#BEBEBE"/>
<path d="M21.4998 18.8462C20.1686 18.8462 18.8673 18.4514 17.7604 17.7118C16.6535 16.9723 15.7908 15.9211 15.2814 14.6912C14.772 13.4613 14.6387 12.1079 14.8984 10.8023C15.1581 9.49667 15.7991 8.29736 16.7404 7.35604C17.6818 6.41473 18.8811 5.77368 20.1867 5.51398C21.4923 5.25427 22.8457 5.38756 24.0756 5.897C25.3055 6.40643 26.3567 7.26913 27.0962 8.376C27.8358 9.48287 28.2306 10.7842 28.2306 12.1154C28.2306 13.9005 27.5214 15.6125 26.2592 16.8748C24.9969 18.137 23.2849 18.8462 21.4998 18.8462ZM21.4998 8.07695C20.7011 8.07695 19.9203 8.31381 19.2562 8.75756C18.592 9.20131 18.0744 9.83203 17.7688 10.57C17.4631 11.3079 17.3831 12.1199 17.539 12.9033C17.6948 13.6867 18.0794 14.4062 18.6442 14.971C19.209 15.5358 19.9286 15.9205 20.7119 16.0763C21.4953 16.2321 22.3073 16.1521 23.0453 15.8465C23.7832 15.5408 24.4139 15.0232 24.8577 14.3591C25.3014 13.6949 25.5383 12.9141 25.5383 12.1154C25.5383 11.0443 25.1128 10.0171 24.3554 9.25979C23.5981 8.50243 22.5709 8.07695 21.4998 8.07695Z" fill="#BEBEBE"/>
<path d="M34.3556 28.2692C34.1687 28.2705 33.9837 28.2328 33.8122 28.1587C33.6407 28.0845 33.4865 27.9755 33.3594 27.8385C31.9306 26.2799 30.1938 25.0349 28.259 24.1822C26.3242 23.3295 24.2334 22.8876 22.119 22.8846H20.8806C16.9393 22.8761 13.1494 24.4017 10.3133 27.1385C10.0512 27.3547 9.71711 27.4638 9.37795 27.444C9.03879 27.4242 8.71967 27.2768 8.4846 27.0316C8.24953 26.7863 8.1159 26.4612 8.11052 26.1215C8.10514 25.7818 8.2284 25.4526 8.45558 25.2C11.7885 21.9786 16.2453 20.1823 20.8806 20.1923H22.119C24.6043 20.1979 27.0616 20.7174 29.3365 21.7182C31.6114 22.719 33.6548 24.1794 35.3383 26.0077C35.5161 26.1995 35.6343 26.4389 35.6783 26.6968C35.7222 26.9546 35.6901 27.2197 35.5859 27.4596C35.4817 27.6994 35.3098 27.9038 35.0913 28.0476C34.8728 28.1914 34.6171 28.2684 34.3556 28.2692V28.2692Z" fill="#BEBEBE"/>
</g>
<defs>
<filter id="filter0_d" x="0" y="0" width="43" height="43" filterUnits="userSpaceOnUse" color-interpolation-filters="sRGB">
<feFlood flood-opacity="0" result="BackgroundImageFix"/>
<feColorMatrix in="SourceAlpha" type="matrix" values="0 0 0 0 0 0 0 0 0 0 0 0 0 0 0 0 0 0 127 0"/>
<feOffset dy="4"/>
<feGaussianBlur stdDeviation="2"/>
<feColorMatrix type="matrix" values="0 0 0 0 0 0 0 0 0 0 0 0 0 0 0 0 0 0 0.25 0"/>
<feBlend mode="normal" in2="BackgroundImageFix" result="effect1_dropShadow"/>
<feBlend mode="normal" in="SourceGraphic" in2="effect1_dropShadow" result="shape"/>
</filter>
</defs>
</svg>
