<svg width="41" height="41" viewBox="0 0 41 41" fill="none" xmlns="http://www.w3.org/2000/svg">
<g filter="url(#filter0_d)">
<path d="M4 19.6679C5.75073 20.3841 7.65224 20.7933 9.65427 20.7933C17.9891 20.7933 24.7407 13.9219 24.7407 5.43916C24.7407 3.52096 24.3805 1.68802 23.7439 0H4V19.6679Z" fill="#BEBEBE"/>
</g>
<path d="M24.3129 32.1229L28.4646 24.8039C34.7526 26.7471 39.3851 32.5824 39.643 39.5606H8.11298C8.3706 32.5749 13.0031 26.7469 19.2914 24.8039L23.4431 32.1229L23.878 32.8896L24.3129 32.1229Z" fill="#BEBEBE" stroke="#857A7A"/>
<path d="M30.6952 9.95847L30.7681 10.2762L31.0882 10.3377L34.0081 10.8992V12.4344L31.08 12.996L30.7597 13.0574L30.6868 13.3753C30.5234 14.0883 30.2425 14.7641 29.8742 15.3783L29.711 15.6504L29.8878 15.914L31.5707 18.4231L30.51 19.5026L28.0585 17.7995L27.7858 17.61L27.5054 17.7879C26.9053 18.1686 26.2446 18.4531 25.5468 18.6188L25.2301 18.694L25.1707 19.014L24.6183 21.9898H23.1294L22.5771 19.014L22.5184 18.6977L22.2062 18.62C21.5046 18.4455 20.8407 18.1595 20.2384 17.7854L19.9592 17.6119L19.6893 17.7995L17.2378 19.5026L16.1771 18.4231L17.86 15.914L18.0368 15.6504L17.8736 15.3783C17.5052 14.7641 17.2244 14.0883 17.061 13.3753L16.9881 13.0576L16.668 12.996L13.748 12.4346V10.8992L16.668 10.3377L16.9881 10.2762L17.061 9.95847C17.2244 9.24552 17.5052 8.56966 17.8736 7.95552L18.0368 7.68338L17.86 7.41983L16.1771 4.91072L17.2378 3.83118L19.6893 5.53433L19.9592 5.72186L20.2384 5.54842C20.8396 5.17496 21.5101 4.88959 22.2094 4.72354L22.5269 4.64814L22.5857 4.32714L23.1305 1.35251H24.6183L25.1707 4.32832L25.2303 4.6492L25.548 4.72382C26.2537 4.88957 26.9156 5.17434 27.5178 5.54842L27.797 5.72186L28.0669 5.53433L30.5184 3.83118L31.5791 4.91072L29.8961 7.41983L29.7194 7.68338L29.8826 7.95552C30.2509 8.56966 30.5318 9.24552 30.6952 9.95847ZM19.8934 11.6626C19.8934 13.8913 21.667 15.7092 23.8781 15.7092C26.0891 15.7092 27.8628 13.8913 27.8628 11.6626C27.8628 9.43399 26.0891 7.61609 23.8781 7.61609C21.667 7.61609 19.8934 9.43399 19.8934 11.6626Z" fill="#C16161" stroke="#864B4B"/>
<path d="M28.6194 23.5981C28.3514 23.5214 28.0498 23.6407 27.9074 23.8965L24.1044 30.5974L20.3014 23.8965C20.159 23.6407 19.8658 23.5214 19.5893 23.5981C12.3519 25.6357 7.25883 32.4048 7.2002 40.0605C7.2002 40.231 7.26721 40.393 7.38448 40.5124C7.50176 40.6317 7.66091 40.6999 7.82845 40.6999H40.3719C40.5395 40.6999 40.6986 40.6317 40.8159 40.5124C40.9332 40.393 41.0002 40.231 41.0002 40.0605C40.9499 32.4048 35.8569 25.6357 28.6194 23.5981ZM34.6674 39.4297V36.2241C34.6674 35.8746 34.3826 35.5847 34.0391 35.5847C33.6957 35.5847 33.4109 35.8746 33.4109 36.2241V39.4297H14.7979V36.2241C14.7979 35.8746 14.5131 35.5847 14.1696 35.5847C13.8262 35.5847 13.5414 35.8746 13.5414 36.2241V39.4297H8.47345C8.78339 32.7714 13.2063 26.9486 19.4637 24.9707L23.5599 32.2002C23.6688 32.3963 23.8782 32.5241 24.1044 32.5241C24.3306 32.5241 24.54 32.4048 24.6489 32.2002L28.7451 24.9707C34.9941 26.9401 39.417 32.7714 39.7269 39.4211H34.6674V39.4297Z" fill="#505050"/>
<path d="M13.3572 13.4785L16.289 14.0412C16.4482 14.5868 16.6576 15.1069 16.9256 15.6099L15.2419 18.1248C15.0744 18.3806 15.0995 18.7216 15.3173 18.9348L16.9592 20.6057C17.1769 20.8189 17.512 20.853 17.7549 20.6824L20.2261 18.9689C20.7203 19.2417 21.2313 19.4633 21.7674 19.6168L22.3202 22.6092C22.3789 22.9076 22.6386 23.1292 22.9401 23.1292H25.2605C25.562 23.1292 25.8217 22.9076 25.8803 22.6092L26.4332 19.6168C26.9693 19.4548 27.4803 19.2417 27.9745 18.9689L30.4456 20.6824C30.6969 20.853 31.032 20.8274 31.2414 20.6057L32.8833 18.9348C33.0927 18.7216 33.1262 18.3806 32.9587 18.1248L31.2749 15.6099C31.543 15.1069 31.7608 14.5868 31.9116 14.0412L34.8434 13.4785C35.1366 13.4189 35.3544 13.1546 35.3544 12.8477V10.4861C35.3544 10.1792 35.1366 9.91495 34.8434 9.85527L31.9116 9.2926C31.7524 8.74698 31.543 8.22694 31.2749 7.72394L32.9587 5.21749C33.1262 4.96173 33.1011 4.62072 32.8833 4.40759L31.2414 2.73662C31.0236 2.51496 30.6886 2.48939 30.4373 2.65989L27.9745 4.38201C27.4887 4.1092 26.9693 3.89607 26.4332 3.73409L25.8803 0.741694C25.8217 0.443308 25.562 0.221649 25.2605 0.221649H22.9401C22.6386 0.221649 22.3789 0.443308 22.3202 0.741694L21.7674 3.73409C21.2313 3.89607 20.7119 4.1092 20.2261 4.38201L17.7633 2.65989C17.512 2.48939 17.1769 2.51496 16.9592 2.73662L15.3173 4.40759C15.1079 4.62072 15.0744 4.96173 15.2419 5.21749L16.9256 7.72394C16.6576 8.22694 16.4398 8.74698 16.289 9.2926L13.3572 9.85527C13.064 9.91495 12.8462 10.1792 12.8462 10.4861V12.8477C12.8462 13.1546 13.064 13.4189 13.3572 13.4785ZM14.1027 11.0147L16.9089 10.4776C17.1518 10.435 17.3445 10.2389 17.4031 10.0002C17.5623 9.30965 17.8303 8.6532 18.1989 8.03938C18.3329 7.82625 18.3246 7.55343 18.1822 7.3403L16.5738 4.93616L17.4785 4.01542L19.8407 5.66081C20.0502 5.80574 20.3098 5.80574 20.5276 5.67786C21.1224 5.30275 21.7758 5.02994 22.4626 4.86796C22.7056 4.80828 22.8899 4.6122 22.9317 4.36496L23.4595 1.50045H24.7411L25.2688 4.36496C25.3107 4.6122 25.5034 4.80828 25.7379 4.86796C26.4248 5.03846 27.0782 5.31127 27.673 5.67786C27.8824 5.81427 28.1504 5.80574 28.3598 5.66081L30.7221 4.01542L31.6268 4.93616L30.0184 7.3403C29.876 7.54491 29.876 7.81772 30.0017 8.03938C30.3703 8.6532 30.6383 9.30965 30.7975 10.0002C30.8561 10.2474 31.0488 10.435 31.2917 10.4776L34.0979 11.0147V12.3191L31.2917 12.8562C31.0488 12.8988 30.8561 13.0949 30.7975 13.3336C30.6383 14.0242 30.3703 14.6891 30.0017 15.2944C29.8676 15.5076 29.876 15.7804 30.0184 15.9935L31.6351 18.4062L30.7304 19.3269L28.3598 17.6815C28.1588 17.5366 27.8907 17.5366 27.6813 17.6645C27.0782 18.0396 26.4332 18.3124 25.7547 18.4744C25.5118 18.5341 25.3275 18.7301 25.2856 18.9774L24.7579 21.8419H23.4762L22.9485 18.9774C22.9066 18.7301 22.7139 18.5341 22.4794 18.4744C21.8009 18.3124 21.1559 18.0396 20.5528 17.6645C20.3433 17.5366 20.0753 17.5366 19.8742 17.6815L17.5036 19.3269L16.599 18.4062L18.2157 15.9935C18.3581 15.7889 18.3581 15.5161 18.2324 15.2944C17.8638 14.6891 17.5958 14.0242 17.4366 13.3336C17.378 13.0864 17.1853 12.8988 16.9424 12.8562L14.1362 12.3191V11.0147H14.1027Z" fill="#505050"/>
<path d="M24.1042 15.8486C26.3743 15.8486 28.2171 13.973 28.2171 11.6627C28.2171 9.35232 26.3743 7.47675 24.1042 7.47675C21.8341 7.47675 19.9912 9.36084 19.9912 11.6712C19.9912 13.9816 21.8425 15.8486 24.1042 15.8486ZM24.1042 8.76407C25.679 8.76407 26.9606 10.0684 26.9606 11.6712C26.9606 13.274 25.679 14.5783 24.1042 14.5783C22.5294 14.5783 21.2477 13.274 21.2477 11.6712C21.2477 10.0684 22.5294 8.76407 24.1042 8.76407Z" fill="#505050"/>
<defs>
<filter id="filter0_d" x="0" y="0" width="28.7407" height="28.7933" filterUnits="userSpaceOnUse" color-interpolation-filters="sRGB">
<feFlood flood-opacity="0" result="BackgroundImageFix"/>
<feColorMatrix in="SourceAlpha" type="matrix" values="0 0 0 0 0 0 0 0 0 0 0 0 0 0 0 0 0 0 127 0"/>
<feOffset dy="4"/>
<feGaussianBlur stdDeviation="2"/>
<feColorMatrix type="matrix" values="0 0 0 0 0 0 0 0 0 0 0 0 0 0 0 0 0 0 0.25 0"/>
<feBlend mode="normal" in2="BackgroundImageFix" result="effect1_dropShadow"/>
<feBlend mode="normal" in="SourceGraphic" in2="effect1_dropShadow" result="shape"/>
</filter>
</defs>
</svg>
