<svg width="32" height="37" viewBox="0 0 32 37" fill="none" xmlns="http://www.w3.org/2000/svg">
<path d="M22.8803 36H9.03419C6.21368 36 3.99146 33.6375 3.99146 30.8375V15C3.99146 14.475 4.33334 14.125 4.84616 14.125C5.35898 14.125 5.70086 14.475 5.70086 15V30.8375C5.70086 32.7625 7.23932 34.25 9.03419 34.25H22.8803C24.7607 34.25 26.2137 32.675 26.2137 30.8375V15C26.2137 14.475 26.5556 14.125 27.0684 14.125C27.5812 14.125 27.9231 14.475 27.9231 15V30.8375C27.9231 33.6375 25.6154 36 22.8803 36Z" fill="#AA4747" stroke="#AA4747"/>
<path d="M27.4103 5.2875H20.9145C20.4872 2.8375 18.4359 1 15.9573 1C13.4786 1 11.4274 2.8375 11 5.2875H4.50427C2.53846 5.2875 1 6.8625 1 8.875C1 10.8875 2.53846 12.375 4.50427 12.375H27.4957C29.4615 12.375 31 10.8 31 8.7875C31 6.775 29.3761 5.2875 27.4103 5.2875ZM15.9573 2.75C17.4957 2.75 18.7778 3.8 19.1197 5.2875H12.7094C13.1368 3.8 14.4188 2.75 15.9573 2.75ZM27.4103 10.625H4.50427C3.5641 10.625 2.7094 9.8375 2.7094 8.7875C2.7094 7.825 3.47863 6.95 4.50427 6.95H27.4957C28.4359 6.95 29.2906 7.7375 29.2906 8.7875C29.2051 9.8375 28.4359 10.625 27.4103 10.625Z" fill="#AA4747" stroke="#AA4747"/>
<path d="M9.97433 31.7125C9.46151 31.7125 9.11963 31.3625 9.11963 30.8375V16.225C9.11963 15.7 9.46151 15.35 9.97433 15.35C10.4872 15.35 10.829 15.7 10.829 16.225V30.8375C10.829 31.275 10.4017 31.7125 9.97433 31.7125Z" fill="#AA4747" stroke="#AA4747"/>
<path d="M21.9402 31.7125C21.4273 31.7125 21.0854 31.3625 21.0854 30.8375V16.225C21.0854 15.7 21.4273 15.35 21.9402 15.35C22.453 15.35 22.7949 15.7 22.7949 16.225V30.8375C22.7949 31.275 22.3675 31.7125 21.9402 31.7125Z" fill="#AA4747" stroke="#AA4747"/>
<path d="M15.9572 31.7125C15.4444 31.7125 15.1025 31.3625 15.1025 30.8375V16.225C15.1025 15.7 15.4444 15.35 15.9572 15.35C16.4701 15.35 16.8119 15.7 16.8119 16.225V30.8375C16.8119 31.275 16.3846 31.7125 15.9572 31.7125Z" fill="#AA4747" stroke="#AA4747"/>
</svg>
