<svg width="160" height="50" viewBox="0 0 160 50" fill="none" xmlns="http://www.w3.org/2000/svg">
<path d="M39.1437 0.107333C38.4856 0.159621 37.7915 0.238053 37.5881 0.277269C35.889 0.60407 35.0394 0.813222 34.453 1.10081C33.5436 1.51911 33.2564 1.63676 32.8017 1.78055C32.2633 1.96356 31.4017 2.34265 31.306 2.44723C31.2701 2.48644 31.0068 2.64331 30.7077 2.81324C30.4085 2.98318 29.906 3.28383 29.5709 3.49299C29.2478 3.70214 28.853 3.92436 28.7094 4.0028C28.5538 4.08123 28.4342 4.19888 28.4342 4.27731C28.4342 4.34267 28.3504 4.40803 28.2547 4.40803C28.1589 4.40803 28.0752 4.46032 28.0752 4.53875C28.0752 4.60411 27.9914 4.66947 27.8957 4.66947C27.8 4.66947 27.7162 4.72176 27.7162 4.77405C27.7162 4.83941 27.5965 4.94398 27.4529 5.02241C27.094 5.20542 24.2461 8.08127 24.2461 8.2512C24.2461 8.29042 24.0666 8.51265 23.8632 8.76101C23.4084 9.25775 23.1931 9.55841 22.9059 10.0421C22.7982 10.2251 22.6307 10.4604 22.5469 10.565C22.4512 10.6695 22.2717 10.9571 22.1401 11.2055C22.0204 11.4539 21.8409 11.7414 21.7691 11.8329C21.6853 11.9244 21.6136 12.0944 21.6136 12.199C21.6136 12.3035 21.5657 12.382 21.5059 12.382C21.446 12.382 21.3742 12.4865 21.3264 12.6042C21.2905 12.7349 21.2187 12.931 21.1588 13.0356C20.8717 13.5584 20.764 13.7937 20.5964 14.212C20.4888 14.4604 20.3212 14.8395 20.2255 15.0356C20.1298 15.2447 20.058 15.5193 20.058 15.663C20.058 15.7938 20.0101 15.9114 19.9383 15.9114C19.8785 15.9114 19.7947 16.1336 19.7469 16.3951C19.699 16.6696 19.6272 16.918 19.5793 16.9572C19.4357 17.0748 19.0887 18.565 18.8494 20.0945C18.7776 20.5651 18.6819 21.0356 18.6221 21.1533C18.5742 21.2579 18.4904 22.3167 18.4426 23.5063C18.3468 25.9507 18.4186 26.2383 19.0169 25.9899C19.34 25.8592 19.34 25.8331 19.352 24.6435C19.3639 22.8396 19.7349 19.5454 19.9383 19.467C20.0101 19.4409 20.058 19.2317 20.058 19.0095C20.0699 18.6042 20.4289 17.297 20.5845 17.1271C20.6204 17.0879 20.6563 16.9441 20.6563 16.8134C20.6563 16.6957 20.7281 16.4212 20.8238 16.2121C20.9195 16.016 21.0751 15.6369 21.1708 15.3885C21.5418 14.4343 21.793 13.8852 21.8888 13.846C21.9366 13.8199 21.9725 13.7415 21.9725 13.663C21.9725 13.4931 23.3008 11.1532 23.4324 11.1009C23.4802 11.0748 23.5281 10.9963 23.5281 10.931C23.5281 10.8656 23.6238 10.7087 23.7435 10.578C23.8512 10.4342 24.0546 10.1597 24.1862 9.95057C24.4974 9.4669 27.1777 6.49955 27.3094 6.49955C27.3692 6.49955 27.5846 6.31654 27.8 6.10739C28.0153 5.88517 28.2188 5.71523 28.2547 5.71523C28.2906 5.71523 28.4701 5.57144 28.6495 5.38843C28.829 5.20542 29.0205 5.06163 29.0684 5.06163C29.1282 5.06163 29.3436 4.93091 29.547 4.76097C30.0137 4.40803 30.1812 4.29038 30.9111 3.88515C31.2222 3.70214 31.5094 3.51913 31.5453 3.46684C31.5812 3.42763 31.7607 3.33612 31.9402 3.29691C32.1197 3.24462 32.2992 3.15311 32.3351 3.08775C32.371 3.02239 32.4787 2.97011 32.5744 2.97011C32.6821 2.97011 32.8376 2.8786 32.9334 2.77403C33.0411 2.66945 33.2804 2.57795 33.4718 2.57795C33.6633 2.57795 33.8188 2.51259 33.8188 2.44723C33.8188 2.36879 33.9385 2.3165 34.0941 2.3165C34.2377 2.3165 34.5129 2.225 34.7043 2.12042C34.8838 2.01585 35.159 1.92434 35.3146 1.92434C35.4582 1.92434 35.7813 1.83284 36.0086 1.72826C36.2479 1.62369 36.6069 1.53218 36.8103 1.53218C37.0138 1.53218 37.265 1.4799 37.3847 1.41454C37.8035 1.15309 41.2018 0.99623 43.1403 1.15309C44.1694 1.23153 45.1028 1.34918 45.2104 1.41454C45.3301 1.4799 45.5575 1.53218 45.713 1.53218C46.2395 1.53218 48.549 2.3165 49.4105 2.7871C49.602 2.89167 49.8532 2.97011 49.9729 2.97011C50.0926 2.97011 50.2122 3.00932 50.2362 3.06161C50.2601 3.12697 50.4755 3.27076 50.7268 3.38841C50.9661 3.51913 51.3729 3.72828 51.6122 3.84593C51.8635 3.97665 52.1387 4.15966 52.2225 4.23809C52.3063 4.3296 52.4618 4.40803 52.5576 4.40803C52.6533 4.40803 52.7251 4.46032 52.7251 4.52568C52.7251 4.59104 52.8208 4.66947 52.9405 4.72176C53.2037 4.81326 53.5268 5.04856 53.9097 5.41458C54.0772 5.58451 54.2567 5.71523 54.2926 5.71523C54.3285 5.71523 54.4721 5.81981 54.6037 5.93746C54.7354 6.06818 55.1661 6.46034 55.549 6.82635C56.3986 7.62375 57.2721 8.56493 58.026 9.50612C58.8038 10.4996 58.8277 10.5257 58.8277 10.6434C58.8277 10.7087 58.9474 10.9048 59.1029 11.0878C59.3901 11.4408 59.6175 11.8068 59.7491 12.1205C59.797 12.2251 59.9047 12.395 59.9884 12.4865C60.0722 12.578 60.144 12.748 60.144 12.8526C60.144 12.9571 60.1799 13.0356 60.2397 13.0356C60.2876 13.0356 60.4431 13.3232 60.5987 13.6892C60.7423 14.0421 60.9218 14.3689 60.9816 14.4081C61.0534 14.4473 61.1013 14.5911 61.1013 14.7219C61.1013 14.8526 61.185 15.0356 61.2807 15.1271C61.3765 15.2186 61.4602 15.4277 61.4602 15.5977C61.4602 15.7676 61.5201 15.9114 61.5799 15.9114C61.6517 15.9114 61.6996 16.0552 61.6996 16.2251C61.6996 16.4081 61.7474 16.5781 61.8072 16.6173C61.9389 16.7088 62.4175 18.3951 62.4175 18.7742C62.4175 18.931 62.4654 19.0487 62.5132 19.0487C62.6927 19.0487 63.0637 21.9507 63.2073 24.4997C63.2791 25.7677 63.315 25.9769 63.5064 26.0422C63.6261 26.0945 63.8415 26.0553 63.9851 25.9769C64.2244 25.8331 64.2363 25.7546 64.1645 24.369C64.0688 22.2644 63.9133 20.735 63.7457 20.3167C63.6739 20.1075 63.6141 19.7154 63.6141 19.4409C63.6141 19.1663 63.5662 18.9049 63.5064 18.8657C63.4466 18.8265 63.3628 18.565 63.3269 18.3036C63.2073 17.6369 62.7047 16.016 62.3338 15.1271C61.7594 13.7676 61.6397 13.4931 61.5799 13.4277C61.544 13.3885 61.4124 13.1271 61.2807 12.8395C61.1491 12.5519 60.7542 11.8591 60.4192 11.297C60.0722 10.7349 59.785 10.2382 59.785 10.212C59.785 10.1859 59.6893 10.0551 59.5816 9.92442C59.4619 9.78063 59.1867 9.42769 58.9593 9.12703C57.9781 7.79368 57.2243 6.93093 56.4345 6.23811C56.1473 5.98974 55.8243 5.68909 55.7285 5.57144C55.4892 5.32307 54.3285 4.40803 54.2448 4.40803C54.2089 4.40803 54.0413 4.27731 53.8738 4.10737C53.7183 3.95051 53.3234 3.676 53.0003 3.49299C52.6892 3.30998 52.414 3.12697 52.39 3.06161C52.3661 3.00932 52.2704 2.97011 52.1627 2.97011C52.0669 2.97011 51.9114 2.8786 51.8157 2.77403C51.708 2.66945 51.5285 2.57795 51.3969 2.57795C51.2772 2.57795 51.1695 2.52566 51.1695 2.4603C51.1695 2.39494 51.0139 2.30343 50.8105 2.25114C50.6191 2.19886 50.4515 2.10735 50.4515 2.04199C50.4515 1.97663 50.3438 1.92434 50.2242 1.92434C50.0926 1.92434 49.8173 1.81977 49.59 1.70212C48.8601 1.30996 48.7763 1.27074 48.5849 1.27074C48.4772 1.27074 48.2259 1.19231 48.0224 1.08773C47.1609 0.695574 45.8686 0.407989 43.6908 0.159621C41.9677 -0.0364597 40.9266 -0.0495317 39.1437 0.107333Z" fill="white"/>
<path d="M67.3955 15.0879C67.3596 15.1402 67.3237 17.2579 67.3237 19.7938V24.4213L67.9579 24.3821L68.5802 24.3429L68.64 20.8527L68.6998 17.3624L71.6913 20.8788L74.6828 24.4083H75.317H75.9392L75.9153 19.7285L75.8794 15.0617L75.317 15.0487L74.7426 15.0225V18.4735C74.7426 20.369 74.6948 21.9246 74.6469 21.9246C74.5871 21.9246 74.1683 21.4932 73.7136 20.9703C71.4041 18.3298 69.1186 15.6761 68.9032 15.4016C68.7237 15.1402 68.5443 15.0748 68.0656 15.0487C67.7425 15.0356 67.4314 15.0487 67.3955 15.0879Z" fill="white"/>
<path d="M77.2193 15.0748C77.1714 15.1271 77.1355 17.2448 77.1355 19.7938V24.4083L81.4193 24.3821L85.6912 24.3429V23.7547V23.1664L82.0415 23.1011L78.3919 23.0357V21.7285V20.4213L81.4193 20.3821L84.4347 20.3559V19.7023V19.0487H81.3834H78.3321V17.7415V16.4343L82.0176 16.4082L85.6912 16.369V15.7154V15.0618L81.4911 15.0225C79.1936 15.0095 77.2671 15.0225 77.2193 15.0748Z" fill="white"/>
<path d="M86.7923 15.0749C86.7444 15.1271 86.7085 17.2448 86.7085 19.7938V24.4083H87.3068H87.8931L87.929 22.4082L87.9649 20.4213L88.8624 20.3821L89.7598 20.3429L91.6145 22.3821L93.4693 24.4083H94.3667H95.2642L93.1103 22.0553L90.9564 19.7023L93.0265 17.4409C94.1513 16.199 95.0847 15.1533 95.0847 15.1141C95.0847 15.0749 94.7496 15.0356 94.3428 15.0226L93.5889 15.0095L91.7342 17.0226L89.8675 19.0487H88.8863H87.9171L87.8812 17.0487L87.8453 15.0618L87.3666 15.0226C87.0914 14.9964 86.8401 15.0226 86.7923 15.0749Z" fill="white"/>
<path d="M95.8864 15.0879C95.8385 15.1271 95.8026 17.2578 95.8026 19.7938V24.4213L96.4368 24.3821L97.059 24.3429L97.0949 23.0618L97.1308 21.7938H99.1292H101.127L102.324 23.101C103.413 24.2906 103.557 24.4083 103.963 24.4083C104.406 24.4083 104.418 24.3952 104.418 23.9115C104.406 23.4932 104.31 23.3233 103.58 22.5259L102.755 21.6239L103.269 21.2579C103.64 21.0095 103.88 20.6958 104.119 20.1729C104.418 19.4932 104.442 19.3494 104.394 18.2121C104.358 17.1271 104.31 16.9049 103.987 16.3559C103.748 15.9114 103.461 15.6369 103.042 15.4016C102.456 15.0617 102.42 15.0617 99.2129 15.0225C97.43 15.0095 95.9342 15.0356 95.8864 15.0879ZM102.755 16.8134C103.09 17.1794 103.102 17.2448 103.102 18.3951C103.102 19.5455 103.09 19.6108 102.755 19.9768L102.408 20.3559H99.7634H97.1189V18.3951V16.4343H99.7634H102.408L102.755 16.8134Z" fill="white"/>
<path d="M107.517 15.1141C106.871 15.2579 106.321 15.6631 105.914 16.2905L105.555 16.8526L105.519 20.6305L105.483 24.4083H106.093H106.691V23.1011V21.7939H109.743H112.794V23.1011V24.4083H113.392H113.991V20.7481C113.991 17.3494 113.979 17.0356 113.751 16.5781C113.428 15.8722 112.746 15.2971 112.052 15.1271C111.406 14.9833 108.199 14.9703 107.517 15.1141ZM112.399 16.7481C112.734 17.0618 112.734 17.0879 112.77 18.7089L112.818 20.3559H109.743H106.668L106.715 18.7742L106.751 17.1925L107.146 16.8134L107.529 16.4343H109.803C112.016 16.4343 112.064 16.4343 112.399 16.7481Z" fill="white"/>
<path d="M117.174 15.1401C116.492 15.2578 115.846 15.7676 115.451 16.5127C115.223 16.931 115.188 17.1794 115.211 17.8853C115.259 18.8395 115.546 19.4016 116.288 19.9899C116.659 20.2774 116.815 20.2905 119.136 20.3559C121.781 20.4212 121.996 20.4735 122.307 21.1402C122.535 21.6239 122.535 21.8461 122.307 22.3167C121.96 23.0356 121.625 23.1271 119.256 23.0748C116.899 23.0356 116.779 22.9964 116.42 22.0814C116.276 21.7023 116.217 21.6631 115.714 21.6631H115.152L115.223 22.199C115.307 22.8788 115.774 23.6369 116.348 24.0291C116.779 24.3298 116.923 24.3428 119.232 24.382C121.661 24.4213 121.673 24.4213 122.319 24.0814C123.755 23.3101 124.114 21.3232 123.049 20.0029C122.367 19.1532 121.996 19.0487 119.519 19.0487C117.138 19.0487 116.791 18.9702 116.528 18.3297C116.264 17.7022 116.396 17.114 116.911 16.6696C117.126 16.4735 117.461 16.4343 119.352 16.4343C121.841 16.4343 122.128 16.5127 122.379 17.2839C122.523 17.7284 122.559 17.7415 123.121 17.7415H123.707L123.624 17.2447C123.444 16.1597 122.678 15.3362 121.649 15.1271C120.907 14.9702 118.023 14.9833 117.174 15.1401Z" fill="white"/>
<path d="M126.567 15.1402C125.945 15.2709 125.358 15.7284 124.975 16.3951C124.712 16.8657 124.7 17.0356 124.664 19.4932C124.617 22.3429 124.688 22.8135 125.311 23.5455C125.957 24.3037 126.376 24.4083 128.924 24.4083C131.832 24.4083 132.275 24.2383 132.933 22.905C133.184 22.4213 133.196 22.1991 133.196 19.7023C133.196 17.4147 133.16 16.9572 132.993 16.6173C132.658 15.9507 131.868 15.284 131.198 15.1402C130.516 14.9703 127.333 14.9703 126.567 15.1402ZM131.593 16.8134L131.94 17.1925V19.6239C131.94 21.1533 131.892 22.1599 131.808 22.369C131.545 22.9834 131.078 23.1011 128.864 23.1011C125.837 23.1011 125.789 23.0488 125.861 19.4017L125.897 17.1925L126.292 16.8134L126.675 16.4343H128.96H131.246L131.593 16.8134Z" fill="white"/>
<path d="M133.974 16.3951L133.986 17.8069L135.506 21.0749L137.025 24.3429H138.222H139.418L140.938 21.0749L142.458 17.8069L142.434 16.4343L142.41 15.0618H141.871H141.333L141.273 16.3036L141.213 17.5454L139.921 20.3167L138.641 23.1011H138.222H137.803L136.523 20.3167L135.23 17.5454L135.17 16.3036L135.111 15.0618L134.548 15.0225L133.974 14.9833V16.3951Z" fill="white"/>
<path d="M145.222 15.1663C144.923 15.2578 144.552 15.4278 144.408 15.5454C144.013 15.8461 143.559 16.552 143.427 17.0879C143.367 17.3363 143.307 19.0879 143.307 20.9834V24.4213L143.942 24.3821L144.564 24.3429L144.6 23.0618L144.636 21.7938H147.675H150.726V23.1011V24.4083H151.337H151.935L151.899 20.7089L151.863 16.9964L151.504 16.369C151.253 15.9114 150.966 15.6369 150.547 15.4016C149.996 15.0879 149.841 15.0618 147.854 15.0356C146.43 15.0095 145.581 15.0487 145.222 15.1663ZM150.116 16.6435C150.571 16.9964 150.726 17.6108 150.726 19.0487V20.3559H147.675H144.624V18.7742C144.624 17.2056 144.624 17.1925 144.971 16.8134L145.318 16.4343H147.579C149.47 16.4343 149.877 16.4735 150.116 16.6435Z" fill="white"/>
<path d="M0.0269234 27.3626C-0.00897448 27.4671 -0.00897448 27.7024 0.0269234 27.8855L0.0987193 28.1992L80.0553 28.173L160 28.1338V27.6763V27.2188L80.0553 27.1796C7.23044 27.1534 0.0987193 27.1665 0.0269234 27.3626Z" fill="white"/>
<path d="M18.8615 30.3821C18.8615 30.4344 18.9213 30.6697 19.005 30.905L19.1486 31.3364H41.19C53.3115 31.3364 63.315 31.2972 63.4227 31.258C63.5424 31.2057 63.6142 31.0227 63.6142 30.7351V30.2906H41.2378C28.9368 30.2906 18.8615 30.3299 18.8615 30.3821Z" fill="white"/>
<path d="M19.6991 33.5718C19.6991 33.6503 19.7948 33.8856 19.9025 34.0947L20.1059 34.4738H41.3216C52.9765 34.4738 62.5492 34.4346 62.5732 34.3692C62.6091 34.317 62.6689 34.0817 62.7168 33.8464L62.8005 33.4281H41.2498C25.706 33.4281 19.6991 33.4673 19.6991 33.5718Z" fill="white"/>
<path d="M83.7766 33.7547C83.7168 33.7808 83.5134 33.8331 83.3339 33.8723C82.8911 33.9769 82.1971 34.6697 81.9099 35.271C81.3954 36.3821 81.7663 37.8462 82.7356 38.5913L83.2621 38.9835L85.7749 39.0488L88.2878 39.1142L88.6468 39.5586C88.9579 39.9377 88.9938 40.0815 88.9459 40.5129C88.8023 41.6371 88.2998 41.8332 85.6673 41.7678C83.9202 41.7286 83.7048 41.7025 83.3937 41.4541C83.2142 41.2972 83.0108 40.9966 82.951 40.7613C82.8552 40.3822 82.8074 40.356 82.2689 40.356C81.7185 40.356 81.6826 40.3822 81.6826 40.6828C81.6826 41.5456 82.6159 42.7221 83.4894 42.9704C83.8006 43.062 84.8296 43.1012 86.2177 43.075C88.6348 43.0358 88.8622 42.9704 89.5323 42.2123C90.5494 41.0619 90.3579 39.1665 89.1254 38.2253L88.563 37.807L86.0861 37.7416C83.6809 37.6763 83.6091 37.6632 83.31 37.3625C82.7356 36.7743 82.8313 35.637 83.4655 35.2579C83.6091 35.1795 84.6501 35.1272 85.9903 35.1272C88.2399 35.1272 88.2758 35.1272 88.563 35.441C88.7186 35.6109 88.8861 35.9115 88.934 36.0946C89.0058 36.4083 89.0656 36.4344 89.5921 36.4344C90.1425 36.4344 90.1784 36.4083 90.1784 36.1076C90.1784 35.6632 89.8793 35.0357 89.4246 34.4998C88.8382 33.8331 88.1801 33.6893 85.8826 33.7024C84.7937 33.7024 83.8484 33.7285 83.7766 33.7547Z" fill="white"/>
<path d="M93.0745 33.8201C92.1172 34.0685 91.3274 35.075 91.1958 36.2384C91.1479 36.6306 91.136 37.8724 91.1599 39.0097C91.1958 40.8006 91.2437 41.1405 91.4591 41.598C91.7702 42.2516 92.0095 42.4999 92.6916 42.8267C93.1702 43.062 93.4813 43.1013 95.3839 43.1013C96.5685 43.1013 97.7412 43.0359 97.9925 42.9575C98.8421 42.7091 99.7395 41.5195 99.7515 40.6437C99.7515 40.3823 99.6916 40.3561 99.1651 40.3561C98.6027 40.3561 98.5668 40.3692 98.4352 40.8006C98.1959 41.611 97.8968 41.7287 95.7429 41.7679C93.6249 41.8202 93.0864 41.7156 92.7035 41.1797C92.4642 40.8659 92.4522 40.6699 92.4522 38.3692V35.8855L92.7993 35.5064L93.1463 35.1273H95.4677C97.6694 35.1273 97.801 35.1404 98.0643 35.4018C98.2198 35.5587 98.3874 35.8594 98.4592 36.0554C98.5668 36.4084 98.6267 36.4345 99.1651 36.4345C99.8113 36.4345 99.8233 36.4084 99.6079 35.5979C99.3925 34.8397 98.6267 34.0293 97.9327 33.8463C97.3104 33.6763 93.7087 33.6502 93.0745 33.8201Z" fill="white"/>
<path d="M100.709 38.3953V43.1012H101.307H101.893L101.929 41.1012L101.965 39.1143L104.992 39.0751L108.008 39.0489V41.0751V43.1143L108.642 43.0751L109.264 43.0359V38.3953V33.7548H108.666H108.068L108.032 35.7417L107.996 37.7417H104.957H101.905V35.7156V33.6894H101.307H100.709V38.3953Z" fill="white"/>
<path d="M112.172 33.8201C111.61 34.0031 111.119 34.3953 110.784 34.9182L110.461 35.428V38.3953V41.3496L110.796 41.9117C111.035 42.2908 111.322 42.5653 111.753 42.7875C112.34 43.0751 112.507 43.1013 114.529 43.1013C116.935 43.1013 117.401 43.0098 118.023 42.4084C118.813 41.6503 118.897 41.2712 118.897 38.3953C118.897 36.1992 118.861 35.7678 118.67 35.3103C118.394 34.6436 117.7 34.0162 117.03 33.8332C116.444 33.6632 112.663 33.6632 112.172 33.8201ZM117.174 35.3626C117.652 35.7809 117.7 36.0816 117.7 38.4215C117.7 41.7548 117.664 41.7941 114.529 41.7941C113.058 41.7941 112.663 41.7548 112.316 41.5588C111.634 41.1927 111.586 40.9705 111.622 38.2254L111.658 35.7548L111.993 35.441C112.328 35.1273 112.364 35.1273 114.625 35.1273C116.623 35.1273 116.958 35.1665 117.174 35.3626Z" fill="white"/>
<path d="M121.649 33.8463C121.051 34.0293 120.488 34.5391 120.177 35.1666C119.938 35.6633 119.914 35.9378 119.878 38.0032C119.818 40.8921 119.926 41.4934 120.632 42.2647C120.931 42.5784 121.338 42.8791 121.601 42.9575C122.211 43.1405 126.124 43.1405 126.734 42.9575C127.357 42.7614 128.158 41.8856 128.338 41.2059C128.41 40.9183 128.47 39.6503 128.47 38.3169C128.47 36.0032 128.458 35.9509 128.146 35.245C127.787 34.4999 127.297 34.0424 126.567 33.8202C126.016 33.6502 122.199 33.6764 121.649 33.8463ZM126.818 35.5065L127.213 35.8856L127.249 38.1732C127.309 41.7418 127.321 41.7287 124.078 41.7287H121.864L121.517 41.2974L121.17 40.8791V38.3823V35.8856L121.517 35.5065L121.864 35.1274H124.15H126.435L126.818 35.5065Z" fill="white"/>
<path d="M129.631 33.7809C129.583 33.8201 129.547 35.9378 129.547 38.4868V43.1013L133.831 43.0751L138.102 43.0359L138.138 42.4215L138.174 41.7941L134.489 41.7679L130.803 41.7287L130.767 37.7025L130.743 33.6894H130.229C129.942 33.6894 129.666 33.7286 129.631 33.7809Z" fill="white"/>
<path d="M21.0153 36.8267C21.0153 36.9835 21.099 37.1273 21.1947 37.1665C21.2905 37.2188 21.3742 37.3234 21.3742 37.428C21.3742 37.5848 24.4615 37.611 41.1899 37.611H61.0175L61.2329 37.3234C61.3645 37.1796 61.4602 36.9443 61.4602 36.8005C61.4602 36.5652 60.838 36.5652 41.2378 36.5652C21.0272 36.5652 21.0153 36.5652 21.0153 36.8267Z" fill="white"/>
<path d="M22.8821 39.8071C22.8582 39.8594 22.9659 40.0947 23.1214 40.33L23.4206 40.7483H41.214C59.5937 40.7352 59.4262 40.7483 59.4262 40.2515C59.4262 40.1862 59.51 40.0947 59.6057 40.0424C59.7014 40.0032 59.7852 39.9117 59.7852 39.8332C59.7852 39.6764 22.9778 39.6502 22.8821 39.8071Z" fill="white"/>
<path d="M25.4066 42.9313C25.3587 42.9705 25.5263 43.2058 25.7776 43.4542L26.2203 43.8856H41.2974H56.3745L56.6976 43.5588C56.8771 43.3758 57.0805 43.232 57.1523 43.232C57.2361 43.232 57.272 43.1535 57.248 43.062C57.2002 42.9444 53.8976 42.8921 41.3333 42.8659C32.6221 42.8529 25.4425 42.879 25.4066 42.9313Z" fill="white"/>
<path d="M29.0325 46.1601C29.0325 46.2516 29.1282 46.3693 29.2479 46.4216C29.3556 46.4608 29.6188 46.6046 29.8103 46.7484C30.1573 46.9967 30.4923 47.0098 41.2378 47.0098C51.9353 47.0098 52.3182 46.9967 52.6653 46.7484C52.8687 46.6176 53.1439 46.4477 53.2995 46.3693C53.455 46.3039 53.5388 46.1863 53.5029 46.1078C53.455 46.0163 49.243 45.9771 41.2258 45.9771C30.9231 45.9771 29.0325 46.0033 29.0325 46.1601Z" fill="white"/>
<path d="M36.0324 49.2451C35.6016 49.3497 35.7332 49.415 36.87 49.6372C39.3948 50.1209 43.0923 50.1209 45.6052 49.6372C46.7539 49.415 46.8735 49.3627 46.5026 49.2451C46.1197 49.1144 36.511 49.1144 36.0324 49.2451Z" fill="white"/>
</svg>
