<svg width="87" height="33" viewBox="0 0 87 33" fill="none" xmlns="http://www.w3.org/2000/svg">
<path d="M19.0183 0.0708672C18.6481 0.105377 18.2577 0.157143 18.1432 0.183025C17.1875 0.398714 16.7096 0.536754 16.3798 0.72656C15.8682 1.00264 15.7067 1.08029 15.4509 1.17519C15.148 1.29598 14.6634 1.54618 14.6095 1.6152C14.5894 1.64108 14.4413 1.74461 14.273 1.85677C14.1047 1.96893 13.822 2.16736 13.6336 2.3054C13.4518 2.44344 13.2297 2.59011 13.1489 2.64187C13.0614 2.69364 12.9941 2.77129 12.9941 2.82305C12.9941 2.86619 12.947 2.90933 12.8932 2.90933C12.8393 2.90933 12.7922 2.94384 12.7922 2.9956C12.7922 3.03874 12.7451 3.08188 12.6912 3.08188C12.6374 3.08188 12.5903 3.11639 12.5903 3.1509C12.5903 3.19404 12.523 3.26306 12.4422 3.31482C12.2403 3.43561 10.6383 5.33366 10.6383 5.44582C10.6383 5.47171 10.5374 5.61837 10.4229 5.7823C10.1672 6.11014 10.046 6.30858 9.88448 6.6278C9.8239 6.74858 9.72967 6.90388 9.68255 6.9729C9.62871 7.04192 9.52774 7.23172 9.4537 7.39565C9.3864 7.55957 9.28543 7.74937 9.24505 7.80977C9.19793 7.87016 9.15755 7.98232 9.15755 8.05134C9.15755 8.12036 9.13062 8.17212 9.09697 8.17212C9.06331 8.17212 9.02293 8.24114 8.99601 8.31879C8.97581 8.40507 8.93543 8.53448 8.90177 8.6035C8.74023 8.9486 8.67966 9.1039 8.58542 9.37998C8.52485 9.5439 8.43061 9.7941 8.37677 9.92351C8.32292 10.0616 8.28254 10.2427 8.28254 10.3376C8.28254 10.4239 8.25561 10.5016 8.21523 10.5016C8.18157 10.5016 8.13446 10.6482 8.10753 10.8208C8.08061 11.002 8.04022 11.1659 8.0133 11.1918C7.93253 11.2694 7.73734 12.2529 7.60272 13.2624C7.56233 13.573 7.50849 13.8836 7.47483 13.9612C7.44791 14.0302 7.40079 14.7291 7.37387 15.5142C7.32002 17.1275 7.36041 17.3173 7.69695 17.1534C7.87868 17.0671 7.87868 17.0499 7.88541 16.2648C7.89215 15.0742 8.1008 12.9 8.21523 12.8482C8.25561 12.831 8.28254 12.693 8.28254 12.5463C8.28927 12.2788 8.49119 11.4161 8.57869 11.3039C8.59889 11.278 8.61908 11.1831 8.61908 11.0969C8.61908 11.0192 8.65946 10.838 8.71331 10.7C8.76716 10.5706 8.85466 10.3204 8.9085 10.1565C9.11716 9.52665 9.25851 9.16429 9.31236 9.13841C9.33928 9.12115 9.35947 9.06939 9.35947 9.01762C9.35947 8.90546 10.1066 7.36114 10.1806 7.32663C10.2076 7.30937 10.2345 7.25761 10.2345 7.21447C10.2345 7.17133 10.2883 7.0678 10.3556 6.98152C10.4162 6.88662 10.5306 6.70544 10.6047 6.5674C10.7797 6.24818 12.2874 4.28973 12.3614 4.28973C12.3951 4.28973 12.5162 4.16895 12.6374 4.03091C12.7586 3.88424 12.873 3.77208 12.8932 3.77208C12.9134 3.77208 13.0143 3.67718 13.1153 3.55639C13.2163 3.43561 13.3239 3.3407 13.3509 3.3407C13.3845 3.3407 13.5057 3.25443 13.6201 3.14227C13.8826 2.90933 13.9768 2.83168 14.3874 2.56423C14.5624 2.44344 14.724 2.32265 14.7442 2.28814C14.7644 2.26226 14.8653 2.20187 14.9663 2.17599C15.0672 2.14148 15.1682 2.08108 15.1884 2.03795C15.2086 1.99481 15.2692 1.9603 15.323 1.9603C15.3836 1.9603 15.4711 1.8999 15.5249 1.83088C15.5855 1.76186 15.7201 1.70147 15.8278 1.70147C15.9355 1.70147 16.023 1.65833 16.023 1.6152C16.023 1.56343 16.0903 1.52892 16.1778 1.52892C16.2586 1.52892 16.4134 1.46853 16.5211 1.39951C16.6221 1.33049 16.7769 1.27009 16.8644 1.27009C16.9452 1.27009 17.1269 1.2097 17.2548 1.14068C17.3894 1.07166 17.5913 1.01127 17.7057 1.01127C17.8202 1.01127 17.9615 0.976759 18.0288 0.933621C18.2644 0.76107 20.176 0.65754 21.2664 0.76107C21.8452 0.812835 22.3702 0.890483 22.4308 0.933621C22.4981 0.976759 22.626 1.01127 22.7135 1.01127C23.0097 1.01127 24.3087 1.52892 24.7933 1.83951C24.901 1.90853 25.0424 1.9603 25.1097 1.9603C25.177 1.9603 25.2443 1.98618 25.2578 2.02069C25.2712 2.06383 25.3924 2.15873 25.5337 2.23638C25.6683 2.32265 25.8972 2.46069 26.0318 2.53834C26.1732 2.62462 26.328 2.7454 26.3751 2.79717C26.4222 2.85756 26.5097 2.90933 26.5635 2.90933C26.6174 2.90933 26.6578 2.94384 26.6578 2.98697C26.6578 3.03011 26.7116 3.08188 26.7789 3.11639C26.927 3.17678 27.1087 3.33208 27.3241 3.57365C27.4184 3.68581 27.5193 3.77208 27.5395 3.77208C27.5597 3.77208 27.6405 3.8411 27.7145 3.91875C27.7886 4.00502 28.0309 4.26385 28.2463 4.50542C28.7242 5.0317 29.2155 5.65288 29.6396 6.27407C30.0771 6.92976 30.0905 6.94701 30.0905 7.02466C30.0905 7.0678 30.1578 7.19721 30.2453 7.318C30.4069 7.55094 30.5348 7.79251 30.6088 7.99957C30.6357 8.06859 30.6963 8.18075 30.7434 8.24114C30.7905 8.30154 30.8309 8.41369 30.8309 8.48271C30.8309 8.55174 30.8511 8.6035 30.8848 8.6035C30.9117 8.6035 30.9992 8.79331 31.0867 9.03488C31.1675 9.26782 31.2684 9.48351 31.3021 9.50939C31.3425 9.53527 31.3694 9.63018 31.3694 9.71645C31.3694 9.80273 31.4165 9.92351 31.4703 9.98391C31.5242 10.0443 31.5713 10.1823 31.5713 10.2945C31.5713 10.4067 31.605 10.5016 31.6386 10.5016C31.679 10.5016 31.7059 10.5965 31.7059 10.7086C31.7059 10.8294 31.7328 10.9416 31.7665 10.9674C31.8405 11.0278 32.1098 12.1408 32.1098 12.391C32.1098 12.4945 32.1367 12.5722 32.1636 12.5722C32.2646 12.5722 32.4732 14.4875 32.554 16.1699C32.5944 17.0067 32.6146 17.1448 32.7223 17.1879C32.7896 17.2224 32.9107 17.1965 32.9915 17.1448C33.1261 17.0499 33.1329 16.9981 33.0925 16.0836C33.0386 14.6945 32.9511 13.6851 32.8569 13.409C32.8165 13.271 32.7829 13.0122 32.7829 12.831C32.7829 12.6498 32.7559 12.4773 32.7223 12.4514C32.6886 12.4255 32.6415 12.2529 32.6213 12.0804C32.554 11.6404 32.2713 10.5706 32.0627 9.98391C31.7396 9.08664 31.6723 8.90546 31.6386 8.86233C31.6184 8.83644 31.5444 8.66389 31.4703 8.47409C31.3963 8.28428 31.1742 7.82702 30.9857 7.45604C30.7905 7.08505 30.629 6.75721 30.629 6.73995C30.629 6.7227 30.5751 6.63642 30.5146 6.55015C30.4473 6.45524 30.2924 6.2223 30.1646 6.02387C29.6126 5.14386 29.1886 4.57444 28.7443 4.11718C28.5828 3.95326 28.4011 3.75483 28.3472 3.67718C28.2126 3.51325 27.5597 2.90933 27.5126 2.90933C27.4924 2.90933 27.3982 2.82305 27.3039 2.71089C27.2164 2.60736 26.9943 2.42618 26.8126 2.3054C26.6376 2.18461 26.4828 2.06383 26.4693 2.02069C26.4559 1.98618 26.402 1.9603 26.3414 1.9603C26.2876 1.9603 26.2001 1.8999 26.1462 1.83088C26.0857 1.76186 25.9847 1.70147 25.9107 1.70147C25.8433 1.70147 25.7828 1.66696 25.7828 1.62382C25.7828 1.58069 25.6953 1.52029 25.5808 1.48578C25.4731 1.45127 25.3789 1.39088 25.3789 1.34774C25.3789 1.3046 25.3183 1.27009 25.251 1.27009C25.177 1.27009 25.0222 1.20107 24.8943 1.12343C24.4837 0.864601 24.4366 0.838718 24.3289 0.838718C24.2683 0.838718 24.127 0.786953 24.0126 0.717932C23.5279 0.459106 22.801 0.269301 21.576 0.105377C20.6067 -0.0240357 20.0212 -0.0326632 19.0183 0.0708672Z" fill="white"/>
<path d="M34.9099 9.95801C34.8897 9.99252 34.8695 11.3902 34.8695 13.0639V16.1181L35.2262 16.0922L35.5762 16.0663L35.6099 13.7628L35.6436 11.4592L37.3263 13.78L39.009 16.1094H39.3657H39.7157L39.7023 13.0208L39.6821 9.94075L39.3657 9.93212L39.0426 9.91487V12.1925C39.0426 13.4435 39.0157 14.4702 38.9888 14.4702C38.9551 14.4702 38.7196 14.1855 38.4638 13.8404C37.1647 12.0976 35.8791 10.3462 35.758 10.1651C35.657 9.99252 35.5561 9.94938 35.2868 9.93212C35.1051 9.9235 34.9301 9.93212 34.9099 9.95801Z" fill="white"/>
<path d="M40.4359 9.94937C40.409 9.98388 40.3888 11.3815 40.3888 13.0639V16.1094L42.7984 16.0922L45.2014 16.0663V15.6781V15.2898L43.1484 15.2467L41.0955 15.2035V14.3408V13.478L42.7984 13.4522L44.4946 13.4349V13.0035V12.5721H42.7782H41.0619V11.7094V10.8466L43.135 10.8294L45.2014 10.8035V10.3721V9.94074L42.8388 9.91486C41.5465 9.90623 40.4628 9.91486 40.4359 9.94937Z" fill="white"/>
<path d="M45.8206 9.94939C45.7936 9.9839 45.7734 11.3816 45.7734 13.0639V16.1094H46.11H46.4398L46.46 14.7894L46.4802 13.478L46.985 13.4522L47.4898 13.4263L48.5331 14.7722L49.5764 16.1094H50.0812H50.586L49.3745 14.5565L48.1629 13.0035L49.3273 11.511C49.96 10.6914 50.485 10.0012 50.485 9.97527C50.485 9.94939 50.2966 9.9235 50.0677 9.91488L49.6437 9.90625L48.6004 11.2349L47.5504 12.5722H46.9985H46.4533L46.4331 11.2521L46.4129 9.94076L46.1436 9.91488C45.9888 9.89762 45.8475 9.91488 45.8206 9.94939Z" fill="white"/>
<path d="M50.936 9.958C50.9091 9.98389 50.8889 11.3902 50.8889 13.0639V16.1181L51.2457 16.0922L51.5957 16.0663L51.6158 15.2208L51.636 14.3839H52.7601H53.8841L54.5572 15.2467C55.1697 16.0318 55.2505 16.1094 55.4794 16.1094C55.7284 16.1094 55.7351 16.1008 55.7351 15.7816C55.7284 15.5055 55.6746 15.3934 55.264 14.8671L54.7995 14.2718L55.089 14.0302C55.2976 13.8663 55.4322 13.6592 55.5669 13.3141C55.7351 12.8655 55.7486 12.7706 55.7217 12.02C55.7015 11.3039 55.6746 11.1572 55.4928 10.7949C55.3582 10.5015 55.1967 10.3204 54.9611 10.1651C54.6313 9.94075 54.6111 9.94075 52.8072 9.91487C51.8043 9.90624 50.963 9.92349 50.936 9.958ZM54.7995 11.0968C54.988 11.3384 54.9947 11.3815 54.9947 12.1408C54.9947 12.9 54.988 12.9431 54.7995 13.1847L54.6044 13.4349H53.1168H51.6293V12.1408V10.8466H53.1168H54.6044L54.7995 11.0968Z" fill="white"/>
<path d="M57.4785 9.97526C57.115 10.0702 56.8054 10.3376 56.5765 10.7517L56.3746 11.1227L56.3544 13.6161L56.3342 16.1094H56.6775H57.014V15.2467V14.3839H58.7304H60.4468V15.2467V16.1094H60.7833H61.1199V13.6937C61.1199 11.4506 61.1131 11.2435 60.9852 10.9415C60.8035 10.4757 60.4199 10.096 60.0295 9.98389C59.666 9.88899 57.8621 9.88036 57.4785 9.97526ZM60.2247 11.0537C60.4131 11.2608 60.4131 11.278 60.4333 12.3478L60.4602 13.4349H58.7304H57.0006L57.0275 12.391L57.0477 11.347L57.2698 11.0968L57.4852 10.8466H58.7641C60.0093 10.8466 60.0362 10.8466 60.2247 11.0537Z" fill="white"/>
<path d="M62.9102 9.99248C62.5266 10.0701 62.1631 10.4066 61.941 10.8984C61.8131 11.1745 61.7929 11.3384 61.8064 11.8043C61.8333 12.4341 61.9948 12.8051 62.4121 13.1933C62.6208 13.3831 62.7083 13.3917 64.0141 13.4349C65.5016 13.478 65.6228 13.5125 65.7978 13.9525C65.9256 14.2717 65.9256 14.4184 65.7978 14.729C65.6026 15.2035 65.4141 15.2639 64.0814 15.2294C62.7554 15.2035 62.6881 15.1776 62.4862 14.5737C62.4054 14.3235 62.3718 14.2976 62.0891 14.2976H61.7727L61.8131 14.6513C61.8602 15.1 62.1227 15.6004 62.4458 15.8592C62.6881 16.0576 62.7689 16.0663 64.0679 16.0921C65.4343 16.118 65.441 16.118 65.8045 15.8937C66.6122 15.3847 66.8141 14.0733 66.2151 13.2019C65.8314 12.6411 65.6228 12.5721 64.2295 12.5721C62.89 12.5721 62.6948 12.5203 62.5468 12.0976C62.3987 11.6835 62.4727 11.2952 62.7621 11.0019C62.8833 10.8725 63.0718 10.8466 64.1352 10.8466C65.5353 10.8466 65.6968 10.8984 65.8381 11.4074C65.9189 11.7007 65.9391 11.7094 66.2555 11.7094H66.5853L66.5382 11.3815C66.4372 10.6654 66.0064 10.1219 65.4276 9.98385C65.0102 9.88032 63.3881 9.88895 62.9102 9.99248Z" fill="white"/>
<path d="M68.1939 9.99251C67.8439 10.0788 67.5141 10.3808 67.2987 10.8208C67.1506 11.1313 67.1439 11.2435 67.1237 12.8655C67.0968 14.7463 67.1372 15.0569 67.4872 15.54C67.8506 16.0404 68.0862 16.1094 69.5199 16.1094C71.1555 16.1094 71.4045 15.9973 71.7747 15.1173C71.9161 14.7981 71.9228 14.6514 71.9228 13.0035C71.9228 11.4937 71.9026 11.1917 71.8084 10.9674C71.6199 10.5274 71.1757 10.0874 70.7988 9.99251C70.4151 9.88035 68.6247 9.88035 68.1939 9.99251ZM71.0209 11.0968L71.2161 11.347V12.9518C71.2161 13.9612 71.1891 14.6255 71.142 14.7635C70.9939 15.169 70.7314 15.2467 69.4862 15.2467C67.7833 15.2467 67.7564 15.2122 67.7968 12.8051L67.817 11.347L68.0391 11.0968L68.2545 10.8466H69.5401H70.8257L71.0209 11.0968Z" fill="white"/>
<path d="M72.3602 10.8207L72.367 11.7525L73.2218 13.9094L74.0766 16.0663H74.7497H75.4228L76.2776 13.9094L77.1324 11.7525L77.1189 10.8466L77.1055 9.94073H76.8026H76.4997L76.4661 10.7604L76.4324 11.58L75.7055 13.409L74.9853 15.2467H74.7497H74.5141L73.7939 13.409L73.067 11.58L73.0333 10.7604L72.9997 9.94073L72.6833 9.91485L72.3602 9.88897V10.8207Z" fill="white"/>
<path d="M78.6874 10.0098C78.5191 10.0702 78.3105 10.1823 78.2297 10.26C78.0076 10.4584 77.7518 10.9243 77.6778 11.278C77.6441 11.4419 77.6105 12.598 77.6105 13.849V16.1181L77.9672 16.0922L78.3172 16.0663L78.3374 15.2208L78.3576 14.3839H80.0672H81.7836V15.2467V16.1094H82.1269H82.4634L82.4432 13.6679L82.423 11.2176L82.2211 10.8035C82.0798 10.5015 81.9182 10.3204 81.6826 10.1651C81.373 9.95801 81.2855 9.94075 80.1682 9.9235C79.3672 9.90624 78.8893 9.93213 78.6874 10.0098ZM81.4403 10.9847C81.6961 11.2176 81.7836 11.6231 81.7836 12.5722V13.4349H80.0672H78.3509V12.391C78.3509 11.3557 78.3509 11.347 78.5461 11.0968L78.7413 10.8466H80.0134C81.0769 10.8466 81.3057 10.8725 81.4403 10.9847Z" fill="white"/>
<path d="M-2.98486 18.0593C-3.00505 18.1283 -3.00505 18.2836 -2.98486 18.4044L-2.94447 18.6115L42.0311 18.5942L87 18.5683V18.2664V17.9644L42.0311 17.9385C1.06712 17.9213 -2.94447 17.9299 -2.98486 18.0593Z" fill="white"/>
<path d="M7.60962 20.0522C7.60962 20.0868 7.64327 20.2421 7.69039 20.3974L7.77116 20.6821H20.1694C26.9878 20.6821 32.6148 20.6562 32.6753 20.6303C32.7426 20.5958 32.783 20.475 32.783 20.2852V19.9919H20.1963C13.277 19.9919 7.60962 20.0177 7.60962 20.0522Z" fill="white"/>
<path d="M8.08069 22.1574C8.08069 22.2092 8.13454 22.3645 8.19511 22.5025L8.30954 22.7527H20.2434C26.7992 22.7527 32.1839 22.7268 32.1974 22.6837C32.2175 22.6492 32.2512 22.4939 32.2781 22.3386L32.3252 22.0625H20.203C11.4596 22.0625 8.08069 22.0884 8.08069 22.1574Z" fill="white"/>
<path d="M44.1244 22.2781C44.0907 22.2954 43.9763 22.3299 43.8753 22.3557C43.6263 22.4248 43.2359 22.882 43.0744 23.2789C42.7849 24.0122 42.9936 24.9785 43.5388 25.4703L43.835 25.7291L45.2484 25.7723L46.6619 25.8154L46.8639 26.1087C47.0389 26.3589 47.059 26.4538 47.0321 26.7385C46.9514 27.4805 46.6687 27.6099 45.1879 27.5668C44.2052 27.5409 44.084 27.5236 43.909 27.3597C43.808 27.2562 43.6936 27.0578 43.66 26.9025C43.6061 26.6523 43.5792 26.635 43.2763 26.635C42.9667 26.635 42.9465 26.6523 42.9465 26.8507C42.9465 27.4201 43.4715 28.1966 43.9629 28.3605C44.1379 28.4209 44.7167 28.4468 45.4975 28.4295C46.8571 28.4037 46.985 28.3605 47.3619 27.8601C47.9341 27.1009 47.8264 25.8499 47.1331 25.2287L46.8167 24.9526L45.4234 24.9095C44.0705 24.8664 44.0302 24.8577 43.8619 24.6593C43.5388 24.2711 43.5927 23.5205 43.9494 23.2703C44.0302 23.2185 44.6157 23.184 45.3696 23.184C46.635 23.184 46.6552 23.184 46.8167 23.391C46.9042 23.5032 46.9985 23.7016 47.0254 23.8224C47.0658 24.0295 47.0994 24.0467 47.3956 24.0467C47.7052 24.0467 47.7254 24.0295 47.7254 23.8311C47.7254 23.5377 47.5571 23.1236 47.3014 22.7699C46.9715 22.3299 46.6013 22.235 45.309 22.2436C44.6965 22.2436 44.1648 22.2608 44.1244 22.2781Z" fill="white"/>
<path d="M49.3543 22.3213C48.8158 22.4852 48.3716 23.1495 48.2976 23.9174C48.2706 24.1762 48.2639 24.9958 48.2774 25.7464C48.2976 26.9284 48.3245 27.1527 48.4456 27.4547C48.6206 27.886 48.7553 28.05 49.1389 28.2657C49.4081 28.421 49.5831 28.4468 50.6534 28.4468C51.3197 28.4468 51.9793 28.4037 52.1207 28.3519C52.5986 28.188 53.1034 27.4029 53.1101 26.8249C53.1101 26.6523 53.0765 26.6351 52.7803 26.6351C52.464 26.6351 52.4438 26.6437 52.3697 26.9284C52.2351 27.4633 52.0668 27.5409 50.8553 27.5668C49.6639 27.6013 49.361 27.5323 49.1456 27.1786C49.011 26.9715 49.0043 26.8421 49.0043 25.3237V23.6844L49.1995 23.4342L49.3947 23.184H50.7005C51.9389 23.184 52.013 23.1927 52.1611 23.3652C52.2486 23.4688 52.3428 23.6672 52.3832 23.7966C52.4438 24.0295 52.4774 24.0468 52.7803 24.0468C53.1438 24.0468 53.1505 24.0295 53.0293 23.4946C52.9082 22.9942 52.4774 22.4593 52.087 22.3385C51.737 22.2264 49.711 22.2091 49.3543 22.3213Z" fill="white"/>
<path d="M53.6486 25.3409V28.4468H53.9851H54.3149L54.3351 27.1268L54.3553 25.8154L56.0582 25.7895L57.7544 25.7723V27.1096V28.4554L58.1111 28.4296L58.4611 28.4037V25.3409V22.2781H58.1246H57.788L57.7678 23.5895L57.7477 24.9095H56.038H54.3216V23.5723V22.235H53.9851H53.6486V25.3409Z" fill="white"/>
<path d="M60.0968 22.3213C59.7804 22.4421 59.5045 22.7009 59.316 23.046L59.1343 23.3825V25.3409V27.2907L59.3227 27.6617C59.4574 27.9119 59.6189 28.0931 59.8612 28.2398C60.191 28.4296 60.2853 28.4468 61.4228 28.4468C62.7757 28.4468 63.0382 28.3864 63.3882 27.9896C63.8324 27.4892 63.8795 27.239 63.8795 25.3409C63.8795 23.8915 63.8593 23.6068 63.7516 23.3048C63.5968 22.8648 63.2064 22.4507 62.8295 22.3299C62.4997 22.2178 60.3728 22.2178 60.0968 22.3213ZM62.9103 23.3393C63.1795 23.6154 63.2064 23.8138 63.2064 25.3582C63.2064 27.5582 63.1863 27.5841 61.4228 27.5841C60.5949 27.5841 60.3728 27.5582 60.1776 27.4288C59.7939 27.1872 59.767 27.0405 59.7872 25.2288L59.8074 23.5982L59.9958 23.3911C60.1843 23.184 60.2045 23.184 61.4766 23.184C62.6007 23.184 62.7891 23.2099 62.9103 23.3393Z" fill="white"/>
<path d="M65.4276 22.3386C65.0911 22.4594 64.7747 22.7958 64.5997 23.2099C64.4651 23.5378 64.4516 23.719 64.4314 25.0821C64.3978 26.9888 64.4584 27.3857 64.8555 27.8947C65.0237 28.1017 65.2526 28.3002 65.4007 28.3519C65.7439 28.4727 67.9449 28.4727 68.2882 28.3519C68.6382 28.2225 69.0892 27.6445 69.1902 27.1959C69.2305 27.0061 69.2642 26.1692 69.2642 25.2892C69.2642 23.7621 69.2575 23.7276 69.0825 23.2617C68.8805 22.7699 68.6046 22.468 68.194 22.3213C67.8844 22.2092 65.7372 22.2264 65.4276 22.3386ZM68.3353 23.4343L68.5574 23.6845L68.5776 25.1943C68.6113 27.5496 68.618 27.541 66.794 27.541H65.5488L65.3536 27.2563L65.1584 26.9802V25.3323V23.6845L65.3536 23.4343L65.5488 23.1841H66.8343H68.1199L68.3353 23.4343Z" fill="white"/>
<path d="M69.9171 22.2954C69.8902 22.3213 69.87 23.7189 69.87 25.4013V28.4468L72.2796 28.4296L74.6826 28.4037L74.7028 27.9982L74.7229 27.5841L72.6498 27.5668L70.5767 27.5409L70.5565 24.8837L70.5431 22.235H70.2537C70.0921 22.235 69.9373 22.2609 69.9171 22.2954Z" fill="white"/>
<path d="M8.82104 24.3056C8.82104 24.4091 8.86816 24.504 8.92201 24.5299C8.97585 24.5644 9.02297 24.6334 9.02297 24.7025C9.02297 24.806 10.7595 24.8232 20.1693 24.8232H31.3223L31.4435 24.6334C31.5175 24.5385 31.5713 24.3832 31.5713 24.2883C31.5713 24.133 31.2213 24.133 20.1962 24.133C8.82778 24.133 8.82104 24.133 8.82104 24.3056Z" fill="white"/>
<path d="M9.87114 26.2727C9.85767 26.3072 9.91825 26.4625 10.0058 26.6178L10.174 26.8939H20.1828C30.5214 26.8852 30.4272 26.8939 30.4272 26.566C30.4272 26.5229 30.4743 26.4625 30.5281 26.428C30.582 26.4021 30.6291 26.3417 30.6291 26.2899C30.6291 26.1864 9.92498 26.1692 9.87114 26.2727Z" fill="white"/>
<path d="M11.2912 28.3347C11.2643 28.3606 11.3585 28.5158 11.4999 28.6798L11.7489 28.9645H20.2298H28.7107L28.8924 28.7488C28.9934 28.628 29.1078 28.5331 29.1482 28.5331C29.1953 28.5331 29.2155 28.4813 29.202 28.4209C29.1751 28.3433 27.3174 28.3088 20.25 28.2915C15.3499 28.2829 11.3114 28.3002 11.2912 28.3347Z" fill="white"/>
<path d="M13.3307 30.4656C13.3307 30.526 13.3845 30.6037 13.4518 30.6382C13.5124 30.6641 13.6605 30.759 13.7682 30.8539C13.9634 31.0178 14.1519 31.0264 20.1962 31.0264C26.2136 31.0264 26.4289 31.0178 26.6241 30.8539C26.7386 30.7676 26.8934 30.6554 26.9809 30.6037C27.0684 30.5605 27.1155 30.4829 27.0953 30.4311C27.0684 30.3707 24.6991 30.3449 20.1894 30.3449C14.3942 30.3449 13.3307 30.3621 13.3307 30.4656Z" fill="white"/>
<path d="M17.2683 32.5018C17.026 32.5708 17.1 32.6139 17.7394 32.7606C19.1597 33.0798 21.2395 33.0798 22.653 32.7606C23.2991 32.6139 23.3664 32.5794 23.1578 32.5018C22.9424 32.4155 17.5375 32.4155 17.2683 32.5018Z" fill="white"/>
</svg>
