<svg width="68" height="60" viewBox="0 0 68 60" fill="none" xmlns="http://www.w3.org/2000/svg">
<path d="M34 0C52.7787 0 68 13.4306 68 30C68 46.5694 52.7787 60 34 60C15.2213 60 -5.06639e-07 46.5675 -5.06639e-07 30C-5.06639e-07 13.4325 15.2213 0 34 0ZM34 56.25C50.4306 56.25 63.75 44.4975 63.75 30C63.75 15.5025 50.4306 3.75 34 3.75C17.5694 3.75 4.25 15.5025 4.25 30C4.25 44.4975 17.5694 56.25 34 56.25ZM32.1321 21.495C32.6421 21.045 33.339 20.9063 34 21.0075C34.6588 20.9043 35.3579 21.045 35.8679 21.495L52.139 35.8519C52.9699 36.585 52.9699 37.7719 52.139 38.503C51.3081 39.2363 49.963 39.2363 49.1342 38.503L34 25.1513L18.8679 38.503C18.037 39.2363 16.6919 39.2363 15.8632 38.503C15.0322 37.7699 15.0322 36.583 15.8632 35.8519L32.1321 21.495Z" fill="black"/>
</svg>
