<svg width="847" height="617" viewBox="0 0 847 617" fill="none" xmlns="http://www.w3.org/2000/svg">
<path fill-rule="evenodd" clip-rule="evenodd" d="M435.669 0.150811C518.033 4.02123 549.86 90.6304 615.239 131.616C677.791 170.828 769.338 178.526 808.934 234.144C852.086 294.757 855.963 370.581 833.519 438.222C810.361 508.015 767.247 586.425 683.838 611.149C601.256 635.628 519.859 576.677 435.669 556.152C380.489 542.699 331.075 525.901 276.156 511.758C184.981 488.279 49.0409 516.483 8.18164 446.065C-30.7615 378.95 79.5217 315.116 124.628 250.611C159.091 201.327 190.867 153.876 240.387 114.001C298.742 67.0106 353.747 -3.69886 435.669 0.150811Z" fill="#8C7C7C" fill-opacity="0.83"/>
</svg>
